<?xml version="1.0" encoding="utf-8"?>
<!-- Generator: Adobe Illustrator 27.8.1, SVG Export Plug-In . SVG Version: 6.00 Build 0)  -->
<svg version="1.1" id="Layer_1" xmlns="http://www.w3.org/2000/svg" xmlns:xlink="http://www.w3.org/1999/xlink" x="0px" y="0px"
	 viewBox="0 0 535.14 74.57" style="enable-background:new 0 0 535.14 74.57;" xml:space="preserve">
<style type="text/css">
	.st0{fill:#D93C38;}
	.st1{fill:#E43F3C;}
	.st2{fill:#243F8B;}
</style>
<path class="st0" d="M103.13,51.12c-5.76,14.99-21.92,23.2-37.42,19c-0.24-0.34-0.49-0.44-0.72-0.19
	c-16.58-4.9-26.06-22.31-21.16-38.89C47.64,18.15,59.25,9.12,72.69,8.62c-0.39,0-0.79,0-1.18,0C53.28,8.65,38.54,23.45,38.57,41.67
	c0.02,8.28,3.15,16.26,8.77,22.34l-2.48-0.95c-0.43,0.01-0.86-0.09-1.25-0.29c-2.23-0.81-4.4-1.71-6.54-2.68l-0.14-0.05l0,0
	c-4.64-2.12-9.13-4.54-13.45-7.27C16.51,48.3,9.93,43.23,3.82,37.63c0.16,0.24,0.32,0.5,0.5,0.72c8.36,10.81,18.8,19.11,30.79,25.49
	l0,0c0,0,15.5,9.52,33.21,10.57c1.08,0.11,2.16,0.16,3.24,0.16c1.14-0.01,2.28-0.07,3.41-0.19c0.12,0,0.24,0,0.37,0h-0.09
	C88.35,72.9,99.32,63.75,103.13,51.12"/>
<polygon class="st1" points="3.82,37.62 3.82,37.63 3.82,37.62 "/>
<path class="st0" d="M212.44,57.24c-0.91,1.77-2.4,3.19-4.22,4c-1.91,0.81-3.96,1.25-6.04,1.28l-14.83,0.17
	c0.13-0.96,0.2-1.92,0.22-2.89c0-1.18,0-2.56,0-4.09V37.79l5-0.17c1.78-0.13,3.58-0.06,5.35,0.22c1.31,0.18,2.49,0.92,3.22,2.02
	c0.83,1.63,1.2,3.47,1.06,5.3h3.84V26.11h-4.73l0.51,7.41H187.6V19.98c-0.04-1.84,0.1-3.67,0.43-5.48c0.18-1.18,0.83-2.24,1.8-2.93
	c1.24-0.68,2.64-1,4.06-0.91l6.04-0.17c1.86-0.07,3.71,0.19,5.48,0.77c1.75,0.62,3.21,1.85,4.13,3.45c1.21,2.31,1.77,4.9,1.62,7.5
	H215l-0.5-15.57h-42.08v4.73l3.1-0.17l3.2-0.18c0,0.87-0.12,1.88-0.18,3.06s-0.08,2.41-0.08,3.67v35.82
	c0.03,1.76-0.09,3.52-0.35,5.26c-0.14,1.19-0.71,2.29-1.6,3.1c-1.21,0.81-2.64,1.24-4.09,1.22V67h44.77l0.52-17.5h-3.84
	C214.04,52.16,213.54,54.81,212.44,57.24"/>
<path class="st0" d="M252.86,40.34c-1.02,1.7-2.51,3.07-4.3,3.93c-2.03,0.94-4.24,1.41-6.47,1.37c-0.77,0-1.42,0-1.98,0
	s-0.9,0-1.45-0.1V30.18c-0.02-1.31,0.07-2.61,0.27-3.9c0.09-0.78,0.45-1.5,1.02-2.03c0.75-0.51,1.65-0.75,2.56-0.68
	c1.55-0.01,3.1,0.17,4.62,0.52c1.38,0.31,2.68,0.89,3.84,1.7c1.12,0.84,2,1.95,2.56,3.24c0.67,1.66,0.98,3.43,0.93,5.22
	c0.06,2.15-0.48,4.28-1.55,6.15 M253.77,20.62c-3.56-1.11-7.28-1.63-11.01-1.55c-2.85,0-5.67,0-8.43,0l-8.15,0.1h-0.58v4.94h0.61
	l2.44-0.13l1.85-0.1c0,0.52,0,1.11-0.09,1.77c0,0.93-0.08,1.91-0.08,2.9v28.26c0.02,1.35-0.07,2.7-0.26,4.04
	c-0.09,0.81-0.46,1.55-1.06,2.1c-0.86,0.55-1.86,0.84-2.88,0.82h-0.55v4.13h18.97v-5.03h-0.63c-0.58,0-1.22,0.08-1.91,0.1
	c-0.69,0.03-1.43,0-2.16,0.1l-1.28,0.09c0-0.49,0.08-1.06,0.09-1.7c0-0.97,0-2.09,0-3.3v-7.94c0.89,0.07,1.79,0.07,2.69,0
	c3.64,0.09,7.26-0.44,10.72-1.56c2.55-0.84,4.88-2.22,6.84-4.04c1.59-1.53,2.82-3.39,3.59-5.45c0.68-1.81,1.02-3.73,0.99-5.67
	c0.07-2.92-0.83-5.77-2.56-8.12c-1.86-2.27-4.34-3.95-7.14-4.82"/>
<path class="st0" d="M267.12,24.08h0.61l2.44-0.13l1.85-0.1c0,0.52,0,1.11-0.09,1.77c-0.05,0.94-0.08,1.91-0.08,2.92v28.25
	c0.02,1.35-0.06,2.7-0.26,4.04c-0.08,0.8-0.46,1.55-1.05,2.1c-0.86,0.55-1.87,0.84-2.89,0.82h-0.55v4.13h17.91v-4.93h-0.63
	c-0.67,0-1.46,0.09-2.38,0.1c-0.67,0-1.28,0-1.87,0.1c0-0.49,0.08-1.04,0.09-1.68c0-0.97,0-2.09,0-3.3V30.26
	c-0.02-1.36,0.07-2.73,0.26-4.08c0.09-0.81,0.48-1.56,1.09-2.1c0.84-0.56,1.83-0.83,2.84-0.78h0.56v-4.14h-17.91L267.12,24.08z"/>
<path class="st2" d="M89.74,50.3c-1.03-0.08-1.17,0.14-0.97,1.39L89.74,50.3 M89.47,25.43l0.19-0.15l-0.46-0.6
	c-0.18,0.17-0.48,0.34-0.5,0.52c-0.03,0.35,0.04,0.7,0.21,1.01c0.55,0.89,1.8,1.22,1.96,2.48c0,0.23,0.61,0.48,0.97,0.54
	c0.36,0.06,0.72-0.16,0.38-0.61c-0.2-0.3-0.47-0.55-0.72-0.84c-0.11-0.14-0.32-0.4-0.29-0.46c0.37-0.49-0.08-0.44-0.33-0.59
	c-0.57-0.34-1.32-0.5-1.43-1.31 M83.85,25.7c-0.09,0.78-0.16,1.3-0.21,1.83c-0.05,0.53,0.6,1.23,1.03,0.87
	c0.83-0.72,1.63-0.51,2.49-0.32c0.17,0.04,0.35,0,0.48-0.11c0.13-0.15,0.26-0.44,0.2-0.58c-0.29-0.62-2.15-1.08-2.73-0.72
	L83.85,25.7 M75.06,24.42l1.58-1.31c0-0.4,0.04-0.86,0.06-1.31h0.26c0.09,0.38,0.18,0.77,0.29,1.26c0.67-0.09,1.35-0.16,2.01-0.32
	c0.14,0,0.19-0.41,0.29-0.63l0.33-0.77l-0.37-0.26l0.95-0.5c-0.47-0.08-1.15,0-1.43-0.28c-0.29-0.28-0.22-0.99-0.32-1.58
	c-0.04,0-0.29,0.08-0.31,0.17c-0.17,0.44-0.22,0.92-0.16,1.38c0.5,1.3,0.35,1.9-0.76,2.43c-0.09-0.37-0.08-0.87-0.32-1.11
	c-0.24-0.24-0.72-0.22-1.26-0.34c-0.17-0.52-0.58-1.15,0.34-1.73c0.35-0.34,0.57-0.78,0.65-1.26c0.15-0.78,0.91-1.28,1.68-1.13
	c0.12,0.02,0.24,0.06,0.35,0.12c0.42,0.16,0.89,0.16,1.32,0.29c0.33,0.1,0.61,0.32,0.79,0.61l-0.68,0.14
	c0.49,0.52,0.62,0.48,0.98-0.14c0.38-0.86,1.21-1.45,2.15-1.53l-1.27-0.84l0.07-0.14l0.81,0.32l-0.75-1.9
	c0.53,0.16,1.07,0.26,1.63,0.29c0.45-0.09,0.89-0.24,1.3-0.46c0,0.04,0-0.04,0-0.11c-0.06-0.19-0.14-0.37-0.21-0.55
	c0.21-0.04,0.48-0.17,0.63-0.09c2.01,0.99,3.96,2.1,5.83,3.33c5.82,4.22,9.83,10.49,11.23,17.54c0.19,0.87,0.24,1.78,0.36,2.67
	l-0.24,0.04l-0.72-4.22h-0.24c-0.03,0.06-0.06,0.13-0.07,0.2c0.17,2.4,0.26,4.8,0.57,7.16c0.23,1.03,0.11,2.11-0.36,3.06l-0.72-0.09
	c0.09-1.33,0.07-2.67-0.05-4c-0.28-1.24-0.65-2.46-1.12-3.64c-1.12-0.16-1.2-1.43-2.2-1.63c-0.64,0.36-1.43,0.98-2.36,0.11
	c-0.05-0.05-0.26,0.08-0.39,0.07c-0.65-0.04-1.3-0.05-1.72-0.72c-0.11-0.18-0.44-0.22-0.67-0.33c0.07,0.26,0.06,0.59,0.23,0.77
	c0.4,0.45,0.9,0.8,1.32,1.24c0.13,0.22,0.23,0.46,0.27,0.72c0.85,0,0.77-0.72,0.89-1.1c0.39,0.29,0.82,0.56,1.2,0.88
	c0.19,0.16,0.44,0.39,0.42,0.59c-0.07,1.21,0,2.46-0.95,3.46c-0.38,0.39-0.51,1-0.87,1.43c-0.58,0.64-1.25,1.19-1.98,1.85
	c-0.1-0.22-0.19-0.44-0.26-0.67c-0.23-1.31-0.89-2.52-1.86-3.43c-0.11-0.13-0.21-0.26-0.3-0.41c-0.67-0.96-1.31-1.94-2.02-2.86
	c-0.15-0.2-0.52-0.24-0.79-0.35l-0.13,0.19c0.64,0.92,1.3,1.82,1.94,2.74c0.14,0.22,0.23,0.46,0.29,0.72c0.33,1.18,1,2.24,1.92,3.04
	c0.44,0.45,0.81,0.95,1.11,1.5c0.26,0.46,0.52,0.64,1,0.29s1-0.72,1.62-1.15c0.09,0.3,0.13,0.62,0.12,0.93
	c-0.44,2.03-0.92,4.05-2.42,5.63c-1.34,1.41-2.15,3.24-2.31,5.18c-0.06,0.64,0,1.28-0.06,1.91c-0.21,1.02-0.87,1.89-1.8,2.36
	c-0.87,0.55-1.76,1.1-1.75,2.33c-0.04,0.22-0.17,0.42-0.35,0.56c-1.13,1.03-2.33,1.99-3.58,2.86c-0.93,0.46-1.93,0.79-2.95,0.98
	c-0.11,0-0.32-0.29-0.48-0.46c0,0,0.04-0.06,0-0.07c-0.44-1.27-0.08-2.71-0.82-3.92c-0.59-0.82-0.56-1.93,0.07-2.71
	c0.88-1.17,0.6-2.38,0.13-3.58c-0.26-0.64-0.82-1.16-1.14-1.79c-0.16-0.4-0.23-0.83-0.19-1.25c0.1-0.44,0.17-0.88,0.21-1.33
	c-0.05-0.34-0.51-0.92-0.64-0.88c-1.05,0.28-1.62-0.16-1.95-1.24c-1.84,1.39-3.88,0.72-5.8,0.92c-0.31-0.02-0.59-0.17-0.78-0.41
	c-0.77-0.98-1.51-1.99-2.22-3.01c-0.41-0.58-1.05-1.07-0.83-1.93c0.02-0.26,0.07-0.52,0.15-0.77c0.51-0.87,0.62-1.91,0.3-2.86
	c-0.07-0.18-0.07-0.37,0-0.55c0.64-0.95,1.29-1.89,1.96-2.82c0.42-0.59,0.91-1.14,1.32-1.73c0.65-0.92,1.27-1.85,1.88-2.76
	c0.68,0.38,1.51,0.41,2.21,0.08c1.1-0.41,2.25-0.69,3.42-0.83c0.85-0.12,1.12,0.59,0.72,1.67c0.87,0.39,1.88,0.49,2.53,1.39
	c0.45,0.62,1.17,0.29,1.43-0.49c0.11-0.28,0.36-0.48,0.65-0.54c0.57-0.04,1.13,0.04,1.67,0.24c0.85,0.31,1.78,0.31,2.63,0
	c0.34-0.14,0.59-0.44,0.66-0.79c-0.06-0.62-0.2-1.23-0.4-1.82c0-0.11-0.34-0.26-0.36-0.24c-0.4,0.44-0.89,0.21-1.37,0.25
	c-1.17,0.11-1.61-0.04-2.11-1.12s-0.47-1.01-1.19-0.14l0.72,0.72c-0.13,0.26-0.26,0.54-0.49,0.97c-1.32-1.43-2.05-3.47-4.09-4.08
	c0,0.72,0,0.72,2.29,2.32h-0.33l-0.64,1.88l-1.15-0.57l1.6-0.44c-1.01-0.95-1.77-1.95-2.77-2.47c-0.49-0.25-1.58,0.22-2.15,0.72
	c-0.52,0.57-0.91,1.24-1.14,1.98c-0.5,0.88-1.55,1.29-2.52,0.98c-0.2-0.11-0.41-0.2-0.64-0.31c0.04-0.77,0.09-1.56,0.13-2.35
	c0-0.61,0.35-0.86,0.95-0.79c0.31,0.05,0.62,0.07,0.93,0.06c0.32,0,0.79-0.08,0.89-0.28c0.12-0.34,0.1-0.71-0.06-1.03
	c-0.2-0.32-0.44-0.6-0.72-0.84l1.81-1.43L75.06,24.42z"/>
<path class="st2" d="M57.51,60.3c1.17,1.61,0.64,4.04,2.86,5.01l-0.2,0.21c-1.22-0.73-2.39-1.54-3.5-2.43
	c-5.11-4.48-8.73-10.41-10.41-16.99c-0.13-0.69-0.16-1.4-0.1-2.1c0.02-0.98,0.09-1.96,0.22-2.93c0.08-0.59,0.23-1.26,0.82-1.28
	c0.62,0.67,1.13,1.23,1.66,1.78c0.2,0.21,0.53,0.32,0.65,0.56c0.37,0.72,0.63,1.43,1.02,2.15c0.25,0.44,0.59,0.82,1,1.11
	c0.8,0.52,1.32,1.37,1.43,2.31c0.17,0.73,0.59,1.37,1.19,1.83c1.3,1.3,3.11,1.75,4.38,3.03c0.46,0.61,0.63,1.4,0.44,2.15
	c-0.21,0.39-0.39,0.8-0.54,1.22c-0.08,0.36-0.08,0.73,0,1.1c0.12,0.72,0.33,1.43,0.47,2.15c0.09,0.48,0.12,0.95-0.64,0.77
	c-0.16,0-0.39,0.2-0.72,0.39"/>
<path class="st2" d="M60.66,22.98l-3.06-0.16c0,0.09,0,0.17,0,0.26l0.57,0.07c-0.22,0.47-0.45,0.93-0.68,1.43l0.17,0.12l0.72-0.4
	c-0.62,0.98-1.55,0.72-2.31,0.91l0.72-0.51c-0.92,0.17-1.68,0.16-2.26,0.92c-0.28,0.36-0.99,0.34-1.43,0.63
	c-0.52,0.41-1.02,0.84-1.5,1.3c-0.23,0.21-0.48,0.39-0.75,0.53c-1.06,0.45-1.87,1.34-2.21,2.44c-0.13,0.45-0.34,0.88-0.62,1.26
	l0.72-2.86c-0.34-0.38-1.18,0.49-0.97-0.52c-0.33,0.57-0.67,1.14-1.05,1.8c1.16-6.13,12.17-17.55,16.33-16.88l-0.82,0.79
	c0.06,0.34,0.12,0.67,0.18,0.98l1.95-1.05l0.16,0.24c-0.08,0.13-0.16,0.26-0.25,0.42l2.36,0.81c-0.28,0.7-0.6,1.39-0.97,2.05
	c-0.15,0.24-0.62,0.27-0.95,0.29l-1.55,1.07c-0.04-0.54-0.08-0.94-0.11-1.27c0.56-0.21,1.15-0.42,1.71-0.72
	c0.11-0.06,0.1-0.39,0.17-0.72l-3.16,1.5l-0.09-0.16l0.46-0.53c-0.97,0.27-1.93,0.6-2.86,0.99c-0.46,0.22-0.81,0.62-0.97,1.11
	c-0.18,0.9-0.79,1.43-1.27,2.15c1.43-0.93,2.92-1.88,4.4-2.78c0.31-0.11,0.63-0.17,0.95-0.17c-0.14,0.29-0.25,0.6-0.4,0.88
	c-0.15,0.22-0.32,0.44-0.51,0.64l1.28-0.44c-0.2,0.27-0.38,0.56-0.54,0.85c-0.2,0.43-0.32,0.91-0.55,1.32
	c-0.31,0.46-0.65,0.91-1,1.33L60.66,22.98z"/>
<path class="st2" d="M90.18,60.84c0-0.29-0.08-0.39-0.04-0.45c0.72-1.32,1.09-2.86,2.36-3.79c0.14-0.1,0.27-0.21,0.39-0.32
	c1.84-1.79,3.3-3.94,4.3-6.31c0.23-0.55,0.52-1.07,0.87-1.55c0,0.29,0.07,0.59,0.09,0.89c-0.04,0.58-0.02,1.15,0.05,1.73
	c0.26,0.88,0.11,1.83-0.42,2.58c-0.72,1.04-1.49,2.06-2.23,3.09l-1.21,1.65c-0.13-0.92-0.22-1.57-0.34-2.36
	c-1.27,1.65-2.02,3.58-3.83,4.87"/>
<path class="st2" d="M69.09,15.61l-0.64-0.35l0.26-0.42l-1.55,0.19c1.07-1.19,2.31-1.18,3.62-0.65c0.22,0.05,0.45,0.07,0.67,0.04
	l2.15,0.16c-0.65,0.89-1.14,1.61-1.69,2.28c-0.27,0.36-0.62,0.66-1.01,0.88c-0.59,0.32-1.23,0.55-1.89,0.66
	c-0.77,0.18-1.47,0.57-2.02,1.15c-0.3,0.25-0.61,0.49-0.92,0.72c-0.54-0.72-0.07-1.99,0.81-2.67c0.72-0.58,1.43-1.27,2.18-2"/>
<path class="st2" d="M81.05,66.62v0.97c-1.98,0.85-4.11,1.29-6.26,1.3c-0.51,0-1.08,0.19-1.43-0.47c-0.06-0.11-0.47-0.06-0.72-0.05
	c-0.79,0.06-1.58,0.15-2.52,0.24c1.62-0.92,1.62-0.79,3.45-0.82c1.4-0.12,2.79-0.33,4.15-0.65L81.05,66.62"/>
<path class="st2" d="M45.85,40.83c-0.58-2.24-0.67-4.58-0.28-6.87c0.07-0.39,0.49-0.72,0.82-1.05
	C45.75,35.5,45.56,38.18,45.85,40.83"/>
<path class="st2" d="M75.08,24.42l-1.94,0.47l0.59-1.78l-0.72-0.54l0,0c0.16-0.43,0.31-0.87,0.46-1.3l0.23,0.04
	c0.44,1.03,0.88,2.06,1.32,3.09l0,0"/>
<path class="st2" d="M99.78,42.75c0.18-0.78,0.35-1.55,0.52-2.33l0.62,0.38c-0.14,0.72-0.31,1.58-0.47,2.41h-0.18
	c0.04-0.31,0.08-0.62,0.14-1.11l-0.53,0.72l-0.11-0.04"/>
<path class="st2" d="M60.64,22.96c-0.04,0.26-0.1,0.51-0.17,0.76c-0.14,0.39-0.33,0.77-0.54,1.25l-1.12-1.05l1.85-0.97L60.64,22.96z
	"/>
<path class="st2" d="M73.06,22.56c0.14,1.07-0.09,1.68-1.22,1.63c0.19-0.72,0.36-1.43,1.24-1.6l0,0"/>
<path class="st2" d="M102.1,45.13c0.11,0.72-0.26,0.84-0.79,0.61c-0.53-0.23-1.18-0.64-1.88-1.03l2.68,0.44L102.1,45.13z"/>
<path class="st2" d="M102.11,45.15c0.31-1.23,0.61-2.46,0.92-3.69l0.34,0.09c-0.32,1.16-0.64,2.32-0.98,3.47
	c0,0.06-0.19,0.07-0.29,0.11L102.11,45.15z"/>
<path class="st2" d="M70.73,18.62c0.52,0,0.84,0,1.17,0c0.16,0.04,0.32,0.11,0.47,0.21c-0.08,0.13-0.14,0.35-0.25,0.38
	c-0.35,0.13-0.73,0.19-1.1,0.17c-0.11,0-0.18-0.48-0.28-0.77"/>
<path class="st2" d="M47.67,35.26c-0.18-0.8-0.37-1.6-0.55-2.4c0.82,0.56,0.52,1.55,0.89,2.29L47.67,35.26"/>
<path class="st2" d="M48.76,36.84l-1.07-0.51l0.57-0.88c0.25,0.46,0.46,0.84,0.66,1.22L48.76,36.84"/>
<path class="st2" d="M81.54,16.56c-0.58,0.06-0.83-0.49-1.08-0.97c-0.08-0.15,0.1-0.44,0.14-0.55L81.54,16.56"/>
<path class="st2" d="M98.87,14.24c2.76,3.14,5.28,6.44,6.95,10.31c3.31,7.7,2.62,15.29-0.62,22.87c0-1.75,0-3.41,0-5.08
	s-0.06-3.34-0.24-5.01c-1.37-12.89-8.26-21.68-20.1-26.73C76.49,7.02,67.8,5.98,58.77,6.79C41.17,8.35,25.12,14.51,9.72,22.84
	c-2.86,1.53-5.58,3.2-8.37,4.8c-0.4,0.23-0.72,0.62-1.35,0.39C15.12,15.96,31.58,6.59,50.59,2.34c25.68-5.73,49.4-0.83,71.27,13.55
	c7.86,5.27,15.09,11.41,21.55,18.31c0.72,0.76,0.57,1.21,0.06,1.91c-8.08,11.05-18.67,18.97-31,24.67
	c-4.17,1.91-8.46,3.56-12.84,4.93c-0.42,0.22-0.9,0.3-1.37,0.25c1.43-2.39,2.81-4.73,4.21-7.07c0.31-0.52,0.9-0.64,1.39-0.87
	c9.91-4.88,18.37-11.51,24.97-20.44c0.67-0.92,0.61-1.43-0.17-2.15c-8.35-8.43-17.6-15.65-28.3-20.83
	c-0.42-0.21-0.86-0.39-1.29-0.57c-0.14-0.07-0.29-0.16-0.4,0c0,0,0.13,0.15,0.19,0.23"/>
<path class="st2" d="M353.66,24.17c0.98-0.5,2.04-0.79,3.13-0.87h0.52v-4.11h-15.43v4.94h0.61l2.56-0.1h1.65
	c-0.32,0.57-0.59,1.16-0.82,1.77c-0.37,0.99-0.69,1.92-0.96,2.78c-0.37,1.09-0.72,2.2-1.06,3.34c-0.35,1.14-0.72,2.41-1.13,3.84
	c-0.41,1.43-0.91,3.04-1.52,4.94c-0.61,1.89-1.36,4.16-2.28,6.82c-0.45,1.57-0.91,3.12-1.38,4.63c-0.28,0.85-0.55,1.71-0.81,2.56
	c-0.37-1.38-0.78-2.74-1.28-4.07l-1.79-5.59c-0.5-1.64-1.12-3.56-1.84-5.76c-0.72-2.2-1.47-4.48-2.24-6.86s-1.52-4.68-2.28-6.93
	c-0.75-2.25-1.28-4.17-1.79-5.83l-0.12-0.43H321l-0.12,0.43c-0.45,1.65-1.09,3.77-1.96,6.49l-2.89,8.95
	c-1.07,3.3-2.14,6.68-3.22,10.13l-0.61,2l-0.88,2.93l-0.92,3.08c-0.08,0.28-0.15,0.55-0.23,0.81c-0.42-1.42-0.83-2.71-1.28-3.84
	c-0.56-1.6-1.11-3.34-1.65-5.12c-0.82-2.72-1.64-5.33-2.46-7.77c-0.82-2.43-1.6-5.12-2.37-7.91s-0.52-4.17-0.18-4.68
	c0.5-0.73,1.85-1.16,3.93-1.28h0.55v-4.13h-18.68v4.95h0.63c1.1-0.08,2.17,0,3.4-0.1c0.18,0.95,0.42,1.89,0.72,2.81
	c0.38,1.28,0.92,2.93,1.6,4.98l12.22,36.73h4.18l9.12-28.77c0.41-1.28,0.79-2.56,1.15-3.84c0.17-0.58,0.33-1.15,0.49-1.73l0.54,1.85
	c0.38,1.28,0.83,2.7,1.28,4.07L333,68.42h4.23l0.13-0.38c1.98-5.81,3.98-11.85,5.95-17.91s3.84-12.01,5.87-18.11
	c0.62-1.87,1.38-3.69,2.26-5.45c0.47-0.98,1.21-1.81,2.12-2.39"/>
<path class="st2" d="M366.32,48.61l3.93-11.23c0.59-1.59,1.11-3.07,1.57-4.43l0.69-2.1c0.27,0.84,0.55,1.71,0.84,2.56
	c0.5,1.48,1.02,2.97,1.57,4.48l3.98,10.68L366.32,48.61z M394.24,63.04c-0.55,0-1.11,0-1.68,0.1c-0.07-1.12-0.28-2.22-0.63-3.29
	c-0.46-1.47-0.88-2.67-1.28-3.53l-14.84-38.16l-0.14-0.37h-3.53l-13.87,37.98c-0.59,1.54-1.13,2.93-1.62,4.17
	c-0.37,1.03-0.95,1.97-1.7,2.76c-0.75,0.65-1.72,0.98-2.71,0.91h-0.59v4.23h14.48v-5.01h-0.61c-0.72,0-1.54,0.08-2.46,0.1
	c-0.58,0-1.15,0-1.7,0.08c0.19-0.49,0.4-0.99,0.59-1.48c0.33-0.83,0.63-1.73,0.9-2.56l1.84-5.53l15.81-0.38l1.89,5.12
	c0.34,0.87,0.57,1.78,0.68,2.71c0.12,0.7-0.06,1.42-0.49,1.98c-0.76,0.63-1.73,0.93-2.71,0.83h-0.58v4.14h17.67v-4.91h-0.63
	c-0.67,0-1.37,0.09-2.11,0.1"/>
<path class="st2" d="M394.81,19.14l-0.45,15.84h4.39V34.4c0-3.76,0.6-6.55,1.79-8.3c1.28-1.77,3.39-2.74,5.56-2.56h5.12V56.8
	c0.02,1.34-0.07,2.69-0.27,4.02c-0.08,0.81-0.44,1.56-1.02,2.12c-0.84,0.55-1.83,0.84-2.84,0.82h-0.55v4.13h18.42v-4.95h-0.63
	c-0.81,0-1.71,0.09-2.72,0.1c-0.75,0-1.47,0-2.14,0.12c0-0.47,0-1.04,0.09-1.69c0-0.97,0-2.09,0-3.3l0.08-34.73h4.31
	c1.67-0.16,3.35,0.23,4.78,1.11c1.2,0.88,2.06,2.14,2.46,3.57c0.58,2.04,0.87,4.16,0.86,6.28v0.58h4.36l-0.43-15.84L394.81,19.14z"
	/>
<path class="st2" d="M480.21,55.85c-1.77,2.42-4.11,4.38-6.81,5.69c-2.59,1.3-5.44,1.98-8.34,2.01c-2.99,0.04-5.93-0.86-8.39-2.56
	c-2.56-1.82-4.58-4.3-5.82-7.19c-1.46-3.39-2.18-7.05-2.11-10.73c-0.03-2.78,0.36-5.55,1.16-8.21c0.69-2.34,1.79-4.53,3.26-6.47
	c1.33-1.75,3.02-3.19,4.96-4.22c1.93-1,4.07-1.51,6.24-1.5c3.18-0.09,6.28,1.06,8.64,3.2c2.36,2.45,3.79,5.66,4.04,9.06v0.51h4.23
	V18.53h-5.44l0.28,2.87c-1.73-1.01-3.57-1.8-5.49-2.37c-2.25-0.64-4.58-0.97-6.92-0.97c-3.66-0.07-7.29,0.69-10.61,2.24
	c-2.95,1.41-5.54,3.47-7.57,6.04c-1.99,2.52-3.52,5.38-4.52,8.43c-1.01,3.06-1.52,6.26-1.52,9.48c-0.03,3.3,0.55,6.59,1.7,9.68
	c1.09,2.92,2.75,5.59,4.87,7.87c2.13,2.26,4.7,4.05,7.56,5.27c3.04,1.27,6.31,1.91,9.61,1.88c2.15-0.03,4.3-0.29,6.4-0.79
	c2.52-0.62,4.91-1.67,7.07-3.11c2.61-1.77,4.88-4.01,6.68-6.6l0.32-0.43l-3.13-2.66L480.21,55.85z"/>
<path class="st2" d="M530.3,58.17V30.26c-0.02-1.36,0.07-2.73,0.26-4.08c0.1-0.81,0.49-1.55,1.09-2.1c0.84-0.56,1.83-0.83,2.84-0.78
	h0.56v-4.14h-17.91v4.95h0.61l2.44-0.13l1.85-0.1c0,0.52-0.06,1.11-0.09,1.77c0,0.93-0.06,1.91-0.06,2.9V40.8h-21.27V30.32
	c-0.02-1.36,0.07-2.73,0.26-4.08c0.1-0.81,0.49-1.55,1.1-2.1c0.83-0.56,1.83-0.83,2.83-0.78h0.59v-4.14h-17.91v4.95h0.63l2.43-0.13
	l1.85-0.1c0,0.52-0.06,1.11-0.09,1.77c0,0.93,0,1.91,0,2.9v28.26c0.02,1.35-0.07,2.7-0.27,4.04c-0.08,0.81-0.45,1.55-1.05,2.1
	c-0.86,0.55-1.87,0.84-2.89,0.82h-0.55v4.13h17.91v-5.01h-0.63c-0.67,0-1.46,0.09-2.38,0.1c-0.65,0-1.28,0-1.87,0.1
	c0-0.47,0.08-1.02,0.09-1.68c0-0.97,0-2.09,0-3.3V45.63l21.31-0.19v11.3c0.02,1.35-0.07,2.7-0.27,4.04
	c-0.08,0.81-0.45,1.55-1.05,2.1c-0.86,0.55-1.87,0.84-2.89,0.82h-0.55v4.13h17.91v-4.89h-0.61c-0.72,0-1.52,0.09-2.43,0.1
	c-0.64,0-1.28,0-1.83,0.1c0-0.47,0.08-1.02,0.09-1.68c0-0.97,0-2.09,0-3.3"/>
</svg>
